<mxfile host="app.diagrams.net" agent="Mozilla/5.0 (Macintosh; Intel Mac OS X 10_15_7) AppleWebKit/605.1.15 (KHTML, like Gecko) Version/18.5 Safari/605.1.15" version="27.1.5">
  <diagram name="Page-1" id="rDfnu0tLuauWhJ2hl2uF">
    <mxGraphModel dx="946" dy="652" grid="1" gridSize="10" guides="1" tooltips="1" connect="1" arrows="1" fold="1" page="1" pageScale="1" pageWidth="827" pageHeight="1169" math="0" shadow="0">
      <root>
        <mxCell id="0" />
        <mxCell id="1" parent="0" />
        <mxCell id="CGEvXIzzsVZgwGfsd8b7-13" value="" style="rounded=0;whiteSpace=wrap;html=1;" vertex="1" parent="1">
          <mxGeometry x="40" y="242.5" width="190" height="235" as="geometry" />
        </mxCell>
        <mxCell id="CGEvXIzzsVZgwGfsd8b7-5" value="" style="rounded=0;whiteSpace=wrap;html=1;" vertex="1" parent="1">
          <mxGeometry x="550" y="180" width="250" height="390" as="geometry" />
        </mxCell>
        <mxCell id="CGEvXIzzsVZgwGfsd8b7-3" value="" style="endArrow=classic;html=1;rounded=0;exitX=1.025;exitY=0.419;exitDx=0;exitDy=0;exitPerimeter=0;" edge="1" parent="1">
          <mxGeometry width="50" height="50" relative="1" as="geometry">
            <mxPoint x="232" y="291.02" as="sourcePoint" />
            <mxPoint x="550" y="290" as="targetPoint" />
          </mxGeometry>
        </mxCell>
        <mxCell id="CGEvXIzzsVZgwGfsd8b7-4" value="sends public key" style="edgeLabel;html=1;align=center;verticalAlign=middle;resizable=0;points=[];" vertex="1" connectable="0" parent="CGEvXIzzsVZgwGfsd8b7-3">
          <mxGeometry x="-0.3965" y="-3" relative="1" as="geometry">
            <mxPoint as="offset" />
          </mxGeometry>
        </mxCell>
        <mxCell id="CGEvXIzzsVZgwGfsd8b7-7" value="generates session key;" style="rounded=1;whiteSpace=wrap;html=1;" vertex="1" parent="1">
          <mxGeometry x="616.5" y="190" width="110" height="50" as="geometry" />
        </mxCell>
        <mxCell id="CGEvXIzzsVZgwGfsd8b7-8" value="encrypts generated session key with the public key sent by the server" style="rounded=1;whiteSpace=wrap;html=1;" vertex="1" parent="1">
          <mxGeometry x="616.5" y="363.75" width="110" height="60" as="geometry" />
        </mxCell>
        <mxCell id="CGEvXIzzsVZgwGfsd8b7-11" value="" style="endArrow=classic;html=1;rounded=0;entryX=0.5;entryY=0;entryDx=0;entryDy=0;exitX=0.5;exitY=1;exitDx=0;exitDy=0;" edge="1" parent="1" source="CGEvXIzzsVZgwGfsd8b7-20" target="CGEvXIzzsVZgwGfsd8b7-8">
          <mxGeometry width="50" height="50" relative="1" as="geometry">
            <mxPoint x="490" y="330" as="sourcePoint" />
            <mxPoint x="510" y="310" as="targetPoint" />
          </mxGeometry>
        </mxCell>
        <mxCell id="CGEvXIzzsVZgwGfsd8b7-14" value="" style="endArrow=classic;html=1;rounded=0;exitX=-0.004;exitY=0.426;exitDx=0;exitDy=0;exitPerimeter=0;entryX=1.011;entryY=0.462;entryDx=0;entryDy=0;entryPerimeter=0;" edge="1" parent="1" source="CGEvXIzzsVZgwGfsd8b7-5" target="CGEvXIzzsVZgwGfsd8b7-13">
          <mxGeometry width="50" height="50" relative="1" as="geometry">
            <mxPoint x="460" y="360" as="sourcePoint" />
            <mxPoint x="510" y="310" as="targetPoint" />
          </mxGeometry>
        </mxCell>
        <mxCell id="CGEvXIzzsVZgwGfsd8b7-15" value="enc session key" style="edgeLabel;html=1;align=center;verticalAlign=middle;resizable=0;points=[];" vertex="1" connectable="0" parent="CGEvXIzzsVZgwGfsd8b7-14">
          <mxGeometry x="-0.0786" relative="1" as="geometry">
            <mxPoint as="offset" />
          </mxGeometry>
        </mxCell>
        <mxCell id="CGEvXIzzsVZgwGfsd8b7-16" value="CLIENT" style="text;html=1;align=center;verticalAlign=middle;resizable=0;points=[];autosize=1;strokeColor=none;fillColor=none;" vertex="1" parent="1">
          <mxGeometry x="590" y="150" width="70" height="30" as="geometry" />
        </mxCell>
        <mxCell id="CGEvXIzzsVZgwGfsd8b7-17" value="SERVER" style="text;html=1;align=center;verticalAlign=middle;resizable=0;points=[];autosize=1;strokeColor=none;fillColor=none;" vertex="1" parent="1">
          <mxGeometry x="40" y="210" width="70" height="30" as="geometry" />
        </mxCell>
        <mxCell id="CGEvXIzzsVZgwGfsd8b7-22" value="" style="edgeStyle=orthogonalEdgeStyle;rounded=0;orthogonalLoop=1;jettySize=auto;html=1;" edge="1" parent="1" source="CGEvXIzzsVZgwGfsd8b7-18" target="CGEvXIzzsVZgwGfsd8b7-21">
          <mxGeometry relative="1" as="geometry" />
        </mxCell>
        <mxCell id="CGEvXIzzsVZgwGfsd8b7-18" value="uses pvt k to dec sessn k" style="rounded=0;whiteSpace=wrap;html=1;" vertex="1" parent="1">
          <mxGeometry x="60" y="260" width="120" height="60" as="geometry" />
        </mxCell>
        <mxCell id="CGEvXIzzsVZgwGfsd8b7-21" value="server has session key" style="points=[[0,0.5,0],[0.24,0,0],[0.5,0.28,0],[0.995,0.475,0],[0.5,0.72,0],[0.24,1,0]];verticalLabelPosition=bottom;sketch=0;html=1;verticalAlign=top;aspect=fixed;align=center;pointerEvents=1;shape=mxgraph.cisco19.key;fillColor=#005073;strokeColor=none;" vertex="1" parent="1">
          <mxGeometry x="90" y="363.75" width="50" height="22.5" as="geometry" />
        </mxCell>
        <mxCell id="CGEvXIzzsVZgwGfsd8b7-25" value="" style="endArrow=classic;html=1;rounded=0;entryX=0.5;entryY=0;entryDx=0;entryDy=0;exitX=0.5;exitY=1;exitDx=0;exitDy=0;" edge="1" parent="1" source="CGEvXIzzsVZgwGfsd8b7-7" target="CGEvXIzzsVZgwGfsd8b7-20">
          <mxGeometry width="50" height="50" relative="1" as="geometry">
            <mxPoint x="672" y="240" as="sourcePoint" />
            <mxPoint x="672" y="364" as="targetPoint" />
          </mxGeometry>
        </mxCell>
        <mxCell id="CGEvXIzzsVZgwGfsd8b7-20" value="client has session key" style="points=[[0,0.5,0],[0.24,0,0],[0.5,0.28,0],[0.995,0.475,0],[0.5,0.72,0],[0.24,1,0]];verticalLabelPosition=bottom;sketch=0;html=1;verticalAlign=top;aspect=fixed;align=center;pointerEvents=1;shape=mxgraph.cisco19.key;fillColor=#005073;strokeColor=none;" vertex="1" parent="1">
          <mxGeometry x="646.5" y="278.75" width="69.44" height="31.25" as="geometry" />
        </mxCell>
        <mxCell id="CGEvXIzzsVZgwGfsd8b7-28" style="edgeStyle=orthogonalEdgeStyle;rounded=0;orthogonalLoop=1;jettySize=auto;html=1;" edge="1" parent="1" source="CGEvXIzzsVZgwGfsd8b7-26" target="CGEvXIzzsVZgwGfsd8b7-13">
          <mxGeometry relative="1" as="geometry" />
        </mxCell>
        <mxCell id="CGEvXIzzsVZgwGfsd8b7-26" value="Symmetric encryption starts once both parties have session keys" style="rounded=0;whiteSpace=wrap;html=1;" vertex="1" parent="1">
          <mxGeometry x="240" y="590" width="290" height="60" as="geometry" />
        </mxCell>
        <mxCell id="CGEvXIzzsVZgwGfsd8b7-27" style="edgeStyle=orthogonalEdgeStyle;rounded=0;orthogonalLoop=1;jettySize=auto;html=1;entryX=0.456;entryY=0.997;entryDx=0;entryDy=0;entryPerimeter=0;" edge="1" parent="1" source="CGEvXIzzsVZgwGfsd8b7-26" target="CGEvXIzzsVZgwGfsd8b7-5">
          <mxGeometry relative="1" as="geometry" />
        </mxCell>
      </root>
    </mxGraphModel>
  </diagram>
</mxfile>
